<?xml version="1.0" encoding="utf-8"?>
<!-- Generator: Adobe Illustrator 26.0.0, SVG Export Plug-In . SVG Version: 6.00 Build 0)  -->
<svg version="1.1" id="Layer_1" xmlns="http://www.w3.org/2000/svg" xmlns:xlink="http://www.w3.org/1999/xlink" x="0px" y="0px"
	 viewBox="0 0 20 20" style="enable-background:new 0 0 20 20;" xml:space="preserve">
<style type="text/css">
	.st0{opacity:0.9;fill:url(#SVGID_1_);stroke:#DFFFBF;stroke-width:2.000000e-02;stroke-miterlimit:10;}
	.st1{fill:#EAECF4;}
</style>
<linearGradient id="SVGID_1_" gradientUnits="userSpaceOnUse" x1="1.6716" y1="18.3284" x2="18.3284" y2="1.6716">
	<stop  offset="0" style="stop-color:#378FE6"/>
	<stop  offset="1" style="stop-color:#3EDA82"/>
</linearGradient>
<path class="st0" d="M15.5,19.5h-11c-2.2,0-4-1.8-4-4v-11c0-2.2,1.8-4,4-4h11c2.2,0,4,1.8,4,4v11C19.5,17.7,17.7,19.5,15.5,19.5z"/>
<path class="st1" d="M4.8,10c0-1.8,0-3.6,0-5.5c0-0.3-0.1-0.8,0.4-0.8C7.4,3.8,9.4,3.5,11.5,4c1.8,0.5,3.1,1.7,3.7,3.4
	c0.6,1.7,0.6,3.5-0.1,5.3c-0.8,2.1-2.7,3.5-4.9,3.5c-1.5,0-3.1,0-4.6,0c-0.7,0-0.7-0.3-0.7-0.8C4.9,13.6,4.8,11.8,4.8,10z M7.6,10
	c0,1.1,0,2.1,0,3.2c0,0.3-0.1,0.6,0.3,0.7c1,0.4,3.4-0.1,4.1-1c1-1.2,1.1-4,0.2-5.4c-0.7-1.1-2.3-1.7-4.1-1.4
	C7.6,6.2,7.6,6.4,7.6,6.8C7.6,7.8,7.6,8.9,7.6,10z"/>
</svg>
